# xmcd CD database file
#
# Track frame offsets:
#	150
#	16834
#	33992
#	55307
#	76332
#	95400
#	113653
#	137990
#	158426
#	178758
#
# Disc length: 2686 seconds
#
# Revision: 0
# Processed by: cddbd v1.5.1PL0 Copyright (c) Steve Scherf et al.
# Submitted via: CDex 1.40Release
#
DISCID=730a7c0a
DTITLE=Drew Cowan - Circus
DYEAR=2004
DGENRE=Country
TTITLE0=Mary
TTITLE1=A Little Too Late
TTITLE2=Unwound
TTITLE3=Gone
TTITLE4=Feeling Alright
TTITLE5=You Don't Cry
TTITLE6=House of Broken Glass
TTITLE7=8 Days in Vegas
TTITLE8=Rescue Me
TTITLE9=Kansas City
EXTD=YEAR: 2004 ID3G: 2
EXTT0=
EXTT1=
EXTT2=
EXTT3=
EXTT4=
EXTT5=
EXTT6=
EXTT7=
EXTT8=
EXTT9=
PLAYORDER=
